<svg width="512" height="512" viewBox="0 0 512 512" fill="none" xmlns="http://www.w3.org/2000/svg">
<rect width="512" height="512" fill="white"/>
<path d="M117.556 200.359H136.159L163.552 278.655L190.944 200.359H209.548L171.022 307H156.081L117.556 200.359ZM107.521 200.359H126.052L129.421 276.678V307H107.521V200.359ZM201.052 200.359H219.655V307H197.683V276.678L201.052 200.359ZM260.891 200.359V307H238.918V200.359H260.891ZM303.371 245.916V263.055H254.885V245.916H303.371ZM308.498 200.359V217.571H254.885V200.359H308.498ZM405.764 251.263V293.523C404.104 295.525 401.54 297.698 398.073 300.042C394.606 302.337 390.139 304.314 384.67 305.975C379.201 307.635 372.585 308.465 364.821 308.465C357.937 308.465 351.662 307.342 345.998 305.096C340.334 302.801 335.451 299.456 331.35 295.062C327.297 290.667 324.172 285.296 321.975 278.948C319.777 272.552 318.679 265.252 318.679 257.049V250.384C318.679 242.181 319.729 234.881 321.828 228.484C323.977 222.088 327.028 216.692 330.983 212.298C334.938 207.903 339.65 204.559 345.119 202.264C350.588 199.969 356.667 198.821 363.356 198.821C372.634 198.821 380.251 200.335 386.208 203.362C392.165 206.341 396.706 210.491 399.831 215.813C403.005 221.087 404.958 227.142 405.69 233.978H384.377C383.84 230.364 382.814 227.215 381.301 224.529C379.787 221.844 377.614 219.744 374.782 218.23C371.999 216.717 368.386 215.96 363.942 215.96C360.28 215.96 357.009 216.717 354.128 218.23C351.296 219.695 348.903 221.868 346.95 224.749C344.997 227.63 343.508 231.194 342.482 235.442C341.457 239.69 340.944 244.622 340.944 250.237V257.049C340.944 262.615 341.481 267.547 342.556 271.844C343.63 276.092 345.217 279.681 347.316 282.61C349.465 285.491 352.102 287.664 355.227 289.129C358.352 290.594 361.989 291.326 366.14 291.326C369.606 291.326 372.487 291.033 374.782 290.447C377.126 289.861 379.006 289.153 380.422 288.323C381.887 287.444 383.01 286.614 383.791 285.833V266.937H363.723V251.263H405.764Z" fill="#FF3B5C"/>
</svg>
