<svg width="88" height="80" viewBox="0 0 88 80" fill="none" xmlns="http://www.w3.org/2000/svg">
<path d="M86.2756 1.09976C84.7756 -0.172237 82.4196 -0.354237 79.9836 0.623763H79.9796C77.4176 1.65176 7.45762 31.6598 4.60962 32.8858C4.09162 33.0658 -0.432382 34.7538 0.0336177 38.5138C0.449618 41.9038 4.08562 43.3078 4.52962 43.4698L22.3156 49.5598C23.4956 53.4878 27.8456 67.9798 28.8076 71.0758C29.4076 73.0058 30.3856 75.5418 32.0996 76.0638C33.6036 76.6438 35.0996 76.1138 36.0676 75.3538L46.9416 65.2678L64.4956 78.9578L64.9136 79.2078C66.1056 79.7358 67.2476 79.9998 68.3376 79.9998C69.1796 79.9998 69.9876 79.8418 70.7596 79.5258C73.3896 78.4458 74.4416 75.9398 74.5516 75.6558L87.6636 7.50176C88.4636 3.86176 87.3516 2.00976 86.2756 1.09976ZM38.0016 51.9958L32.0016 67.9958L26.0016 47.9958L72.0016 13.9958L38.0016 51.9958Z" fill="#FF3B5C"/>
</svg>
